<svg width="70" height="70" viewBox="0 0 70 70" fill="none" xmlns="http://www.w3.org/2000/svg">
<path d="M35 70C15.67 70 0 54.3298 0 35C0 15.67 15.67 0 35 0C54.3298 0 70 15.67 70 35C70 54.3298 54.3298 70 35 70ZM30.1766 22.4511C29.9467 22.2977 29.6765 22.2159 29.4 22.2159C28.6268 22.2159 28 22.8427 28 23.6159V46.3841C28 46.6606 28.0819 46.9308 28.2352 47.1608C28.6639 47.8041 29.5333 47.978 30.1766 47.5489L47.2528 36.1648C47.4065 36.0623 47.5384 35.9303 47.641 35.7766C48.0701 35.1334 47.8961 34.264 47.2528 33.8352L30.1766 22.4511Z" fill="#024D91"/>
</svg>
