<svg width="32" height="30" viewBox="0 0 32 30" fill="none" xmlns="http://www.w3.org/2000/svg">
<path d="M9.06481 12.9224L12.5307 5.64475C12.6918 5.30645 13.1758 5.31967 13.3184 5.66627L16.244 12.7793C16.7581 14.0293 17.7371 15.0287 18.9731 15.5655L24.1087 17.7957C24.4555 17.9463 24.4555 18.4402 24.1087 18.5908L18.6499 20.9613C17.6093 21.4132 16.7452 22.1958 16.1905 23.1889L12.5093 29.7788C12.3352 30.0905 11.8814 30.0682 11.7383 29.741L9.04504 23.5802C8.50597 22.3471 7.51133 21.3723 6.27069 20.8612L0.767575 18.5939C0.410808 18.4469 0.410808 17.9395 0.767576 17.7925L6.36037 15.4883C7.54741 14.9993 8.51123 14.0848 9.06481 12.9224Z" fill="white"/>
<path d="M24.6511 2.56279L25.7346 0.248808C25.8946 -0.0928735 26.383 -0.0796798 26.5245 0.270145L27.395 2.42286C27.9015 3.6754 28.8741 4.68045 30.1063 5.22473L31.2424 5.72651C31.5859 5.87824 31.5859 6.36767 31.2424 6.5194L29.7874 7.16206C28.7479 7.62117 27.8877 8.41086 27.3393 9.4094L26.1511 11.5728C25.978 11.888 25.5196 11.8658 25.3776 11.5352L24.6308 9.79792C24.0992 8.56114 23.1102 7.57996 21.8723 7.06122L20.5871 6.52265C20.2335 6.37448 20.2335 5.87143 20.5871 5.72326L21.9608 5.14761C23.1458 4.65102 24.1047 3.72974 24.6511 2.56279Z" fill="white"/>
</svg>
